<?xml version="1.0" encoding="UTF-8"?>
<svg xmlns="http://www.w3.org/2000/svg" viewBox="0 0 64 64" role="img" aria-label="마사지KING 왕관">
  <rect width="64" height="64" rx="14" fill="#0b3f32"/>
  <path fill="#f4c552" d="M9 22.6c0-2.6 3.1-4 5.1-2.2l9.3 8.3 6.4-15.2c1-2.4 4.4-2.4 5.4 0l6.4 15.2 9.3-8.3c2-1.8 5.1-.4 5.1 2.2v25.7c0 1.7-1.3 3-3 3H12c-1.7 0-3-1.3-3-3V22.6Z"/>
  <path fill="#ffdf7a" d="M15.8 28.4 25 36.7c1.5 1.3 3.8.8 4.6-1.1L32.5 29l2.9 6.6c.8 1.9 3.1 2.4 4.6 1.1l9.2-8.3v16.4H15.8V28.4Z"/>
  <path fill="#2a2414" fill-opacity=".18" d="M15 46h35v5.3H15z"/>
  <circle cx="12" cy="20" r="4.4" fill="#f9d86b"/>
  <circle cx="32" cy="12.4" r="4.8" fill="#f9d86b"/>
  <circle cx="52" cy="20" r="4.4" fill="#f9d86b"/>
  <path fill="none" stroke="#fff4bd" stroke-linecap="round" stroke-width="3" d="M18 41.5h29"/>
</svg>
